<svg xmlns="http://www.w3.org/2000/svg" viewBox="0 0 110 150" fill="none">
  <ellipse cx="55" cy="140" rx="38" ry="7" fill="rgba(0,0,0,0.25)"/>
  <!-- Hull -->
  <path d="M16 122 Q55 140 94 122 L88 84 Q55 74 22 84 Z" fill="#4527A0"/>
  <path d="M16 122 Q55 140 94 122 L88 84 Q55 74 22 84 Z" fill="url(#eH3)" opacity="0.4"/>
  <!-- Stripe -->
  <path d="M20 112 Q55 128 90 112 L88 100 Q55 114 22 100 Z" fill="#311B92" opacity="0.6"/>
  <!-- Deck -->
  <rect x="26" y="56" width="58" height="30" rx="5" fill="#7C43BD"/>
  <!-- Cab -->
  <rect x="34" y="34" width="42" height="24" rx="4" fill="#4527A0"/>
  <rect x="38" y="38" width="34" height="14" rx="3" fill="#CE93D8" opacity="0.5"/>
  <!-- Top -->
  <rect x="40" y="26" width="30" height="10" rx="3" fill="#311B92"/>
  <!-- Bow -->
  <polygon points="55,8 36,34 74,34" fill="#4527A0"/>
  <line x1="55" y1="8" x2="55" y2="0" stroke="#F3E5F5" stroke-width="1.5"/>
  <polygon points="55,0 65,3 55,7" fill="#F3E5F5"/>
  <defs>
    <linearGradient id="eH3" x1="0" y1="0" x2="0" y2="1">
      <stop offset="0%" stop-color="white" stop-opacity="0.3"/>
      <stop offset="100%" stop-color="white" stop-opacity="0"/>
    </linearGradient>
  </defs>
</svg>
