<svg xmlns="http://www.w3.org/2000/svg" viewBox="0 0 110 150" fill="none">
  <ellipse cx="55" cy="140" rx="38" ry="7" fill="rgba(0,0,0,0.25)"/>
  <!-- Hull -->
  <path d="M16 122 Q55 140 94 122 L88 84 Q55 74 22 84 Z" fill="#C62828"/>
  <path d="M16 122 Q55 140 94 122 L88 84 Q55 74 22 84 Z" fill="url(#eH1)" opacity="0.4"/>
  <!-- Hull stripe -->
  <path d="M20 112 Q55 128 90 112 L88 100 Q55 114 22 100 Z" fill="#B71C1C" opacity="0.6"/>
  <!-- Deck -->
  <rect x="26" y="56" width="58" height="30" rx="5" fill="#EF5350"/>
  <!-- Cab -->
  <rect x="34" y="34" width="42" height="24" rx="4" fill="#C62828"/>
  <rect x="38" y="38" width="34" height="14" rx="3" fill="#FF8A80" opacity="0.5"/>
  <!-- Top -->
  <rect x="40" y="26" width="30" height="10" rx="3" fill="#B71C1C"/>
  <!-- Bow -->
  <polygon points="55,8 36,34 74,34" fill="#C62828"/>
  <line x1="55" y1="8" x2="55" y2="0" stroke="white" stroke-width="1.5"/>
  <polygon points="55,0 65,3 55,7" fill="white"/>
  <defs>
    <linearGradient id="eH1" x1="0" y1="0" x2="0" y2="1">
      <stop offset="0%" stop-color="white" stop-opacity="0.3"/>
      <stop offset="100%" stop-color="white" stop-opacity="0"/>
    </linearGradient>
  </defs>
</svg>
